<svg xmlns="http://www.w3.org/2000/svg" viewBox="0 0 400 180" width="500" height="225">
  <defs>
    <linearGradient id="g" x1="0%" y1="0%" x2="100%" y2="0%">
      <stop offset="0%" stop-color="#667eea"/>
      <stop offset="50%" stop-color="#a855f7"/>
      <stop offset="100%" stop-color="#ec4899"/>
    </linearGradient>
    <filter id="f"><feGaussianBlur stdDeviation="2.5"/><feMerge><feMergeNode/><feMergeNode in="SourceGraphic"/></feMerge></filter>
  </defs>

  <path d="
    M110,90
    C110,40 175,35 190,65
    C205,95 175,135 150,125
    C125,115 112,88 132,70
    C152,52 182,65 202,87
    C222,109 255,108 278,85
    C300,62 332,50 350,72
    C368,94 360,128 332,138
    C304,148 275,108 290,75
    C305,42 375,45 375,92
  " fill="none" stroke="url(#g)" stroke-width="12" stroke-linecap="round" filter="url(#f)"/>
</svg>